<svg xmlns="http://www.w3.org/2000/svg" width="177" height="40" fill="none"><g clip-path="url(#a)"><mask id="b" width="177" height="40" x="0" y="0" maskUnits="userSpaceOnUse" style="mask-type:luminance"><path fill="#fff" d="M176.319 0H0v40h176.319V0Z"/></mask><g mask="url(#b)"><mask id="c" width="177" height="40" x="0" y="0" maskUnits="userSpaceOnUse" style="mask-type:luminance"><path fill="#fff" d="M176.319 0H0v40h176.319V0Z"/></mask><g mask="url(#c)"><path fill="#fff" d="M34.242 1.09c-7.199 0-13.447 4.064-16.616 10.025a11.283 11.283 0 0 0-4.902-1.109c-6.263 0-11.338 5.075-11.338 11.338 0 6.263 5.075 11.338 11.338 11.338 2.258 0 4.362-.658 6.13-1.797 3.406 4.852 9.026 8.026 15.388 8.026 10.397 0 18.829-8.467 18.829-18.909 0-10.441-8.427-18.913-18.83-18.913Z"/><path fill="#0058F6" d="M22.19 27.593c1.937 3.158 5.056 5.515 8.74 6.431-1.218-11.863 5.357-17.596 7.035-18.854H22.24a11.303 11.303 0 0 1 1.827 6.174c0 2.278-.693 4.456-1.876 6.248ZM47.833 15.175C32.994 19.606 35.648 33.99 35.648 33.99l.168.387c7.224-.728 12.868-6.853 12.868-14.3 0-1.722-.302-3.371-.851-4.9ZM34.38 5.704c-4.213 0-7.996 1.827-10.615 4.738h21.23c-2.618-2.906-6.406-4.738-10.614-4.738Z"/><path fill="#fff" d="M34.242 1.09c-7.199 0-13.447 4.064-16.616 10.025a11.343 11.343 0 0 1 4.61 4.055H37.96c-1.678 1.258-8.248 6.986-7.035 18.854a14.32 14.32 0 0 1-8.74-6.431 11.354 11.354 0 0 1-3.331 3.292c3.406 4.852 9.026 8.026 15.388 8.026 10.397 0 18.829-8.467 18.829-18.909 0-10.441-8.427-18.913-18.83-18.913ZM23.76 10.436c2.62-2.906 6.407-4.738 10.616-4.738a14.24 14.24 0 0 1 10.615 4.738H23.76Zm12.061 23.939-.168-.387s-2.654-14.383 12.185-18.814c.55 1.53.851 3.179.851 4.902 0 7.446-5.64 13.57-12.868 14.299Z"/><path fill="#202033" d="M24.067 21.344c0 6.263-5.075 11.338-11.338 11.338-6.263 0-11.338-5.075-11.338-11.338 0-6.263 5.075-11.338 11.338-11.338 6.264 0 11.338 5.075 11.338 11.338Z"/><path fill="#fff" d="M22.498 21.745h-1.773a1.395 1.395 0 0 1-1.332.995 1.392 1.392 0 0 1 0-2.782c.63 0 1.164.42 1.332.995h1.773a3.133 3.133 0 1 0-3.105 3.535 3.13 3.13 0 0 0 3.105-2.733M6.065 18.215a3.135 3.135 0 0 0 0 6.268c.911 0 1.391-.589 1.391-.589v.54h1.738v-3.08A3.135 3.135 0 0 0 6.06 18.22m.005 4.515a1.392 1.392 0 0 1 0-2.782c.768 0 1.391.624 1.391 1.391 0 .768-.623 1.391-1.39 1.391Z"/><path fill="#fff" d="M12.73 18.215c-.842 0-1.392.456-1.392.456v-1.99H9.6v4.663a3.135 3.135 0 1 0 3.134-3.134m-.005 4.525a1.392 1.392 0 0 1 0-2.782 1.392 1.392 0 0 1 0 2.782ZM57.606 18.636V5.743h9.452v2.803h-6.13v2.148h5.991v2.818h-5.99v2.322h6.129v2.802h-9.452ZM72.89 18.636v-5.199l-4.886-7.694h3.747l2.803 4.753 2.763-4.753h3.767l-4.867 7.694v5.199H72.89ZM82.035 18.636V5.743h9.447v2.803h-6.125v2.148h5.99v2.818h-5.99v2.322h6.125v2.802h-9.447ZM103.637 18.636l-1.951-8.08-1.95 8.08H96.22L92.526 5.743h3.728l1.956 8.6 2.203-8.6h2.55l2.203 8.6 1.931-8.6h3.748l-3.688 12.893h-3.52ZM115.212 5.743h-3.322v12.888h3.322V5.743ZM120.025 18.636V8.645h-3.615V5.743h10.536v2.902h-3.594v9.991h-3.327ZM136.918 18.636l-5.451-7.788v7.788h-3.322V5.743h3.416l5.218 7.422V5.743h3.347v12.893h-3.208ZM141.478 18.636V5.743h9.447v2.803H144.8v2.148h5.991v2.818H144.8v2.322h6.125v2.802h-9.447ZM153.88 14.323a5.825 5.825 0 0 0 4.115 1.699c1.139 0 1.837-.485 1.837-1.1 0-.732-.832-1.024-2.204-1.311-2.124-.426-5.099-.966-5.099-4.02 0-2.164 1.837-4.04 5.139-4.04 2.07 0 3.867.618 5.238 1.796l-1.817 2.377c-1.084-.891-2.495-1.332-3.634-1.332-1.139 0-1.525.446-1.525 1.005 0 .678.792.906 2.223 1.178 2.124.446 5.065 1.065 5.065 3.981 0 2.59-1.911 4.308-5.372 4.308-2.609 0-4.426-.812-5.718-2.05l1.757-2.495-.005.004ZM165.595 14.323a5.822 5.822 0 0 0 4.114 1.699c1.139 0 1.837-.485 1.837-1.1 0-.732-.832-1.024-2.203-1.311-2.124-.426-5.1-.966-5.1-4.02 0-2.164 1.837-4.04 5.139-4.04 2.07 0 3.867.618 5.239 1.796l-1.817 2.377c-1.085-.891-2.496-1.332-3.635-1.332-1.138 0-1.524.446-1.524 1.005 0 .678.792.906 2.223 1.178 2.124.446 5.065 1.065 5.065 3.981 0 2.59-1.912 4.308-5.372 4.308-2.61 0-4.427-.812-5.719-2.05l1.758-2.495-.005.004ZM66.38 34.316l-5.452-7.788v7.788h-3.322V21.423h3.421l5.219 7.422v-7.421h3.342v12.892h-3.209ZM70.94 34.316V21.423h9.451v2.803h-6.124v2.149h5.99v2.822h-5.99v2.317h6.124v2.802H70.94ZM92.546 34.316l-1.95-8.08-1.956 8.08h-3.516l-3.688-12.893h3.728l1.95 8.6 2.204-8.6h2.55l2.203 8.6 1.936-8.6h3.748L96.06 34.317h-3.515ZM101.433 30.004a5.825 5.825 0 0 0 4.115 1.698c1.138 0 1.837-.485 1.837-1.1 0-.732-.832-1.024-2.204-1.311-2.124-.426-5.099-.966-5.099-4.02 0-2.164 1.837-4.04 5.139-4.04 2.07 0 3.867.618 5.238 1.797l-1.817 2.376c-1.084-.891-2.495-1.332-3.634-1.332-1.139 0-1.525.446-1.525 1.005 0 .679.792.906 2.223 1.179 2.124.445 5.065 1.064 5.065 3.98 0 2.59-1.911 4.308-5.372 4.308-2.609 0-4.426-.812-5.718-2.05L101.438 30l-.005.005Z"/></g></g></g><defs><clipPath id="a"><path fill="#fff" d="M0 0h176.319v40H0z"/></clipPath></defs></svg>