<svg width="402" height="53" viewBox="0 0 402 53" fill="none" xmlns="http://www.w3.org/2000/svg">
<g clip-path="url(#clip0_25125_143511)">
<path d="M114.829 49.6798H109.689L108.459 52.4598H107.219L111.709 42.5098H112.809L117.299 52.4598H116.059L114.829 49.6798ZM114.359 48.6398L112.249 43.8698L110.139 48.6398H114.349H114.359Z" fill="#231F20"/>
<path d="M132.591 48.9001H133.791C133.321 51.1401 131.491 52.6501 129.051 52.6501C126.181 52.6501 123.871 50.4301 123.871 47.4801C123.871 44.5301 126.181 42.3301 129.051 42.3301C131.491 42.3301 133.321 43.8201 133.791 46.0601H132.591C132.181 44.4401 130.861 43.4101 129.051 43.4101C126.801 43.4101 125.041 45.1501 125.041 47.4801C125.041 49.8101 126.801 51.5601 129.051 51.5601C130.861 51.5601 132.181 50.5101 132.591 48.9001Z" fill="#231F20"/>
<path d="M140.499 48.8998H137.969V52.4598H136.809V42.5098H140.569C142.809 42.5098 144.369 43.7398 144.369 45.6998C144.369 47.2798 143.359 48.3898 141.809 48.7598L144.819 52.4598H143.389L140.489 48.8998H140.499ZM137.969 47.8298H140.549C142.099 47.8298 143.239 47.0298 143.239 45.6898C143.239 44.3498 142.099 43.5698 140.549 43.5698H137.969V47.8298Z" fill="#231F20"/>
<path d="M154.11 49.6798H148.97L147.74 52.4598H146.5L150.99 42.5098H152.09L156.58 52.4598H155.34L154.11 49.6798ZM153.64 48.6398L151.53 43.8698L149.42 48.6398H153.63H153.64Z" fill="#231F20"/>
<path d="M160.25 42.5098V52.4598H159.09V42.5098H160.25Z" fill="#231F20"/>
<path d="M172.18 42.5098V52.4598H171.21L164.84 44.6198V52.4598H163.68V42.5098H164.62L171.01 50.4598V42.5098H172.17H172.18Z" fill="#231F20"/>
<path d="M181.48 43.5698V47.2298H186.54V48.2998H181.48V52.4598H180.32V42.5098H187.15V43.5798H181.47L181.48 43.5698Z" fill="#231F20"/>
<path d="M195.239 49.6798H190.099L188.869 52.4598H187.629L192.119 42.5098H193.219L197.709 52.4598H196.469L195.239 49.6798ZM194.769 48.6398L192.659 43.8698L190.549 48.6398H194.759H194.769Z" fill="#231F20"/>
<path d="M209.947 52.4598H208.787V45.0398L205.467 50.5598H204.707L201.357 45.0098L201.387 52.4598H200.227V42.5098H201.107L205.087 49.1498L209.067 42.5098H209.947V52.4598Z" fill="#231F20"/>
<path d="M214.531 42.5098V52.4598H213.371V42.5098H214.531Z" fill="#231F20"/>
<path d="M224.617 51.3898V52.4598H217.977V42.5098H219.137V51.3898H224.627H224.617Z" fill="#231F20"/>
<path d="M233.42 42.5098L229.34 48.9298V52.4598H228.17V48.9298L224.07 42.5098H225.36L228.76 47.8398L232.14 42.5098H233.43H233.42Z" fill="#231F20"/>
<path d="M248.292 49.7398C248.292 51.3598 246.872 52.4598 244.662 52.4598H240.422V42.5098H244.552C246.552 42.5098 247.782 43.4898 247.782 45.0298C247.782 46.1298 247.172 46.9898 246.102 47.3098C247.562 47.5598 248.302 48.5098 248.302 49.7398H248.292ZM241.572 43.5298V46.9398H244.282C245.822 46.9398 246.682 46.2498 246.682 45.1498C246.682 44.1498 245.832 43.5298 244.432 43.5298H241.582H241.572ZM247.152 49.6198C247.152 48.5398 246.212 47.9098 244.652 47.9098H241.582V51.4398H244.622C246.212 51.4398 247.152 50.6598 247.152 49.6298V49.6198Z" fill="#231F20"/>
<path d="M254.909 48.8998H252.379V52.4598H251.219V42.5098H254.979C257.219 42.5098 258.779 43.7398 258.779 45.6998C258.779 47.2798 257.769 48.3898 256.219 48.7598L259.229 52.4598H257.799L254.899 48.8998H254.909ZM252.379 47.8298H254.959C256.509 47.8298 257.649 47.0298 257.649 45.6898C257.649 44.3498 256.509 43.5698 254.959 43.5698H252.379V47.8298Z" fill="#231F20"/>
<path d="M268.52 49.6798H263.38L262.15 52.4598H260.91L265.4 42.5098H266.5L270.99 52.4598H269.75L268.52 49.6798ZM268.06 48.6398L265.95 43.8698L263.84 48.6398H268.05H268.06Z" fill="#231F20"/>
<path d="M282.008 42.5098V52.4598H281.038L274.668 44.6198V52.4598H273.508V42.5098H274.448L280.838 50.4598V42.5098H281.998H282.008Z" fill="#231F20"/>
<path d="M294.219 47.4098C294.219 50.3698 292.039 52.4598 288.969 52.4598H285.469V42.5098H288.969C292.039 42.5098 294.219 44.5398 294.219 47.4098ZM293.029 47.4098C293.029 45.1898 291.329 43.5798 288.959 43.5798H286.619V51.3898H288.959C291.329 51.3898 293.029 49.7398 293.029 47.4098Z" fill="#231F20"/>
<path d="M17.5312 13.5096H20.8313C19.8813 18.3596 16.1013 21.5796 11.0413 21.5796C5.21125 21.5796 0.53125 17.1196 0.53125 11.0696C0.53125 5.01961 5.20125 0.599609 11.0413 0.599609C16.1013 0.599609 19.8813 3.75961 20.8313 8.60961H17.5312C16.7313 5.47961 14.4013 3.57961 11.0413 3.57961C6.90125 3.57961 3.78125 6.70961 3.78125 11.0796C3.78125 15.4496 6.91125 18.5796 11.0413 18.5796C14.4013 18.5796 16.7213 16.6796 17.5312 13.5196" fill="#B01116"/>
<path d="M30.9503 14.3502H26.2803V21.2002H23.0703V0.950195H31.2003C35.7203 0.950195 39.0003 3.5702 39.0003 7.6502C39.0003 10.6602 37.2103 12.8902 34.4803 13.8402L40.1403 21.1902H36.2103L30.9703 14.3402L30.9503 14.3502ZM26.2803 11.4002H31.0703C33.7803 11.4002 35.8303 9.9702 35.8303 7.6502C35.8303 5.3302 33.7803 3.9002 31.0703 3.9002H26.2803V11.4002Z" fill="#B01116"/>
<path d="M56.5987 16.3402H46.7188L44.6387 21.1902H41.2188L50.1787 0.950195H53.1888L62.1188 21.1902H58.6987L56.6188 16.3402H56.5987ZM55.3787 13.4802L51.6588 4.7602L47.9088 13.4802H55.3787Z" fill="#B01116"/>
<path d="M66.9287 0.950195H63.7188V21.1902H66.9287V0.950195Z" fill="#B01116"/>
<path d="M87.9695 0.950195V21.1902H85.4095L73.4795 6.9102V21.1902H70.2695V0.950195H72.7395L84.7895 15.5402V0.950195H87.9695Z" fill="#B01116"/>
<path d="M109.401 6.82012H106.241C105.881 4.68012 104.421 3.37012 101.481 3.37012C98.8909 3.37012 97.1909 4.47012 97.1909 6.44012C97.1909 8.05012 98.3809 8.88012 100.551 9.30012L103.381 9.87012C107.161 10.6101 109.331 12.2201 109.331 15.3501C109.331 19.1301 106.231 21.5701 101.591 21.5701C96.6509 21.5701 93.3509 18.9801 92.9609 14.6401H96.1409C96.5309 17.2001 98.5509 18.7201 101.771 18.7201C104.421 18.7201 106.061 17.6201 106.061 15.7401C106.061 14.5201 105.261 13.4201 102.881 13.0001L99.3409 12.3201C95.5609 11.6101 93.8009 9.67012 93.8009 6.69012C93.8009 3.00012 96.7809 0.620117 101.271 0.620117C104.991 0.620117 108.921 2.17012 109.401 6.84012" fill="#B01116"/>
<path d="M90.6497 3.42C89.8497 3.12 89.4597 2.56 89.4597 1.84C89.4597 0.8 90.3297 0 91.3697 0C92.4097 0 93.2997 0.8 93.2997 1.85C93.2997 2.3 93.2697 2.5 92.6697 3.64L91.0597 6.85H89.1797L90.6397 3.43L90.6497 3.42Z" fill="#B01116"/>
<path d="M137.141 13.5098H140.441C139.491 18.3598 135.711 21.5798 130.651 21.5798C124.821 21.5798 120.141 17.1198 120.141 11.0698C120.141 5.01984 124.811 0.589844 130.651 0.589844C135.711 0.589844 139.491 3.74984 140.441 8.59984H137.141C136.341 5.46984 134.011 3.56984 130.651 3.56984C126.511 3.56984 123.391 6.69984 123.391 11.0698C123.391 15.4398 126.521 18.5698 130.651 18.5698C134.011 18.5698 136.331 16.6698 137.141 13.5098Z" fill="#231F20"/>
<path d="M160.149 0.950195V21.1902H156.969V12.7402H146.339V21.1902H143.129V0.950195H146.339V9.7602H156.969V0.950195H160.149Z" fill="#231F20"/>
<path d="M166.687 0.950195H163.477V21.1902H166.687V0.950195Z" fill="#231F20"/>
<path d="M186.371 13.5098H189.671C188.721 18.3598 184.941 21.5798 179.881 21.5798C174.051 21.5798 169.371 17.1198 169.371 11.0698C169.371 5.01984 174.041 0.589844 179.881 0.589844C184.941 0.589844 188.721 3.74984 189.671 8.59984H186.371C185.571 5.46984 183.241 3.56984 179.881 3.56984C175.741 3.56984 172.621 6.69984 172.621 11.0698C172.621 15.4398 175.751 18.5698 179.881 18.5698C183.241 18.5698 185.561 16.6698 186.371 13.5098Z" fill="#231F20"/>
<path d="M204.622 16.3402H194.742L192.662 21.1902H189.242L198.192 0.950195H201.202L210.132 21.1902H206.712L204.632 16.3402H204.622ZM203.402 13.4802L199.682 4.7602L195.932 13.4802H203.402Z" fill="#231F20"/>
<path d="M230.181 10.2098V21.1898H227.651L227.411 17.7098C225.981 20.0598 223.571 21.5498 220.121 21.5498C214.081 21.5498 209.641 16.9098 209.641 11.2798C209.641 4.99984 214.371 0.589844 220.271 0.589844C224.651 0.589844 228.811 2.99984 230.001 7.81984H226.581C225.541 4.68984 222.711 3.55984 220.331 3.55984C216.071 3.55984 212.891 6.68984 212.891 11.2698C212.891 15.1698 215.811 18.5298 220.121 18.5298C223.691 18.5298 225.981 16.2698 226.701 13.1698H219.881V10.1898H230.181V10.2098Z" fill="#231F20"/>
<path d="M253.728 11.0698C253.728 16.8998 249.028 21.5498 243.188 21.5498C237.348 21.5498 232.648 16.9098 232.648 11.0698C232.648 5.22984 237.348 0.589844 243.188 0.589844C249.028 0.589844 253.728 5.22984 253.728 11.0698ZM250.478 11.0698C250.478 6.92984 247.328 3.56984 243.188 3.56984C239.048 3.56984 235.898 6.92984 235.898 11.0698C235.898 15.2098 239.048 18.5398 243.188 18.5398C247.328 18.5398 250.478 15.2098 250.478 11.0698Z" fill="#231F20"/>
<path d="M280.718 15.6602C280.718 18.9602 277.858 21.2002 273.368 21.2002H264.258V0.950195H273.038C277.238 0.950195 279.738 2.9402 279.738 6.1602C279.738 8.2702 278.578 10.0602 276.648 10.7102C279.418 11.2502 280.728 13.2402 280.728 15.6502M267.478 3.7802V9.7302H272.538C275.248 9.7302 276.738 8.4502 276.738 6.5802C276.738 4.8202 275.278 3.7802 272.688 3.7802H267.478ZM277.568 15.2702C277.568 13.4502 275.958 12.3802 273.368 12.3802H267.478V18.3602H273.248C276.048 18.3602 277.568 16.9902 277.568 15.2602" fill="#231F20"/>
<path d="M300.9 12.2902C300.9 17.9802 297.36 21.5502 292.03 21.5502C286.7 21.5502 283.16 17.9802 283.16 12.2902V0.950195H286.37V12.2902C286.37 16.0102 288.63 18.5702 292.03 18.5702C295.43 18.5702 297.71 16.0102 297.71 12.2902V0.950195H300.89V12.2902H300.9Z" fill="#231F20"/>
<path d="M319.862 6.82012H316.702C316.342 4.68012 314.882 3.37012 311.942 3.37012C309.352 3.37012 307.652 4.47012 307.652 6.44012C307.652 8.05012 308.842 8.88012 311.012 9.30012L313.842 9.87012C317.622 10.6101 319.792 12.2201 319.792 15.3501C319.792 19.1301 316.692 21.5701 312.052 21.5701C307.112 21.5701 303.812 18.9801 303.422 14.6401H306.602C306.992 17.2001 309.012 18.7201 312.232 18.7201C314.882 18.7201 316.522 17.6201 316.522 15.7401C316.522 14.5201 315.722 13.4201 313.342 13.0001L309.802 12.3201C306.022 11.6101 304.262 9.67012 304.262 6.69012C304.262 3.00012 307.242 0.620117 311.732 0.620117C315.452 0.620117 319.382 2.17012 319.862 6.84012" fill="#231F20"/>
<path d="M326.081 0.950195H322.871V21.1902H326.081V0.950195Z" fill="#231F20"/>
<path d="M347.12 0.950195V21.1902H344.56L332.63 6.9102V21.1902H329.41V0.950195H331.88L343.94 15.5402V0.950195H347.12Z" fill="#231F20"/>
<path d="M353.671 3.9002V9.7002H363.791V12.6502H353.671V18.2202H364.981V21.1902H350.461V0.950195H364.981V3.9002H353.671Z" fill="#231F20"/>
<path d="M383.081 6.82012H379.921C379.561 4.68012 378.101 3.37012 375.161 3.37012C372.571 3.37012 370.871 4.47012 370.871 6.44012C370.871 8.05012 372.061 8.88012 374.231 9.30012L377.061 9.87012C380.841 10.6101 383.011 12.2201 383.011 15.3501C383.011 19.1301 379.911 21.5701 375.271 21.5701C370.331 21.5701 367.031 18.9801 366.641 14.6401H369.821C370.211 17.2001 372.231 18.7201 375.451 18.7201C378.101 18.7201 379.741 17.6201 379.741 15.7401C379.741 14.5201 378.941 13.4201 376.561 13.0001L373.021 12.3201C369.241 11.6101 367.481 9.67012 367.481 6.69012C367.481 3.00012 370.461 0.620117 374.951 0.620117C378.671 0.620117 382.601 2.17012 383.081 6.84012" fill="#231F20"/>
<path d="M401.471 6.82012H398.311C397.951 4.68012 396.491 3.37012 393.551 3.37012C390.961 3.37012 389.261 4.47012 389.261 6.44012C389.261 8.05012 390.451 8.88012 392.621 9.30012L395.451 9.87012C399.231 10.6101 401.401 12.2201 401.401 15.3501C401.401 19.1301 398.301 21.5701 393.661 21.5701C388.721 21.5701 385.421 18.9801 385.031 14.6401H388.211C388.601 17.2001 390.621 18.7201 393.841 18.7201C396.491 18.7201 398.131 17.6201 398.131 15.7401C398.131 14.5201 397.331 13.4201 394.951 13.0001L391.411 12.3201C387.631 11.6101 385.871 9.67012 385.871 6.69012C385.871 3.00012 388.851 0.620117 393.341 0.620117C397.061 0.620117 400.991 2.17012 401.471 6.84012" fill="#231F20"/>
</g>
<defs>
<clipPath id="clip0_25125_143511">
<rect width="402" height="53" fill="white"/>
</clipPath>
</defs>
</svg>
